<?xml version="1.0" standalone="no"?>
<!DOCTYPE svg PUBLIC "-//W3C//DTD SVG 20010904//EN"
 "http://www.w3.org/TR/2001/REC-SVG-20010904/DTD/svg10.dtd">
<svg version="1.0" xmlns="http://www.w3.org/2000/svg"
 width="1280.000000pt" height="1920.000000pt" viewBox="0 0 1280.000000 1920.000000"
 preserveAspectRatio="xMidYMid meet">
<metadata>
Created by potrace 1.16, written by Peter Selinger 2001-2019
</metadata>
<g transform="translate(0.000000,1920.000000) scale(0.100000,-0.100000)"
fill="#000000" stroke="none">
<path d="M5967 16270 c-53 -4 -103 -12 -110 -18 -6 -5 -28 -13 -47 -17 -19 -4
-40 -11 -45 -16 -6 -4 -46 -12 -90 -18 -92 -12 -271 -48 -300 -61 -11 -4 -65
-11 -120 -14 -62 -4 -121 -13 -155 -26 -30 -11 -62 -20 -72 -20 -23 0 -106
-27 -140 -45 -14 -8 -32 -15 -39 -15 -25 0 -184 -84 -229 -121 -25 -20 -52
-39 -60 -43 -26 -12 -55 -30 -96 -61 -43 -33 -65 -47 -109 -71 -38 -20 -225
-204 -225 -221 0 -7 -42 -56 -92 -110 -51 -54 -97 -106 -103 -115 -5 -9 -31
-47 -56 -85 -43 -63 -169 -306 -169 -326 0 -9 -17 -49 -51 -123 -10 -23 -19
-49 -19 -58 0 -9 -4 -16 -10 -16 -5 0 -10 -6 -10 -13 0 -13 -19 -59 -41 -99
-5 -10 -9 -23 -9 -30 0 -7 -29 -71 -65 -142 -35 -71 -69 -152 -75 -180 -6 -28
-16 -71 -21 -96 -14 -56 -20 -329 -9 -349 4 -9 4 -60 -1 -115 -6 -58 -6 -103
0 -110 11 -14 20 -60 30 -156 5 -41 14 -97 21 -125 6 -27 16 -66 21 -85 4 -19
10 -75 13 -123 3 -49 9 -94 14 -100 5 -7 12 -41 15 -76 3 -35 10 -68 16 -74
18 -18 14 -367 -4 -391 -8 -11 -18 -42 -21 -69 -6 -42 -11 -50 -35 -59 -18 -6
-26 -14 -22 -21 4 -7 8 -17 9 -22 7 -43 50 -145 62 -145 10 0 12 -6 7 -22 -12
-41 -16 -148 -5 -148 13 0 13 -26 -2 -67 -9 -26 -9 -40 1 -68 7 -20 13 -70 13
-112 1 -98 18 -154 51 -173 48 -27 52 -12 54 238 1 125 7 256 12 292 28 178
57 547 65 823 5 136 11 194 26 250 12 39 23 99 26 132 4 44 11 65 26 78 16 14
23 40 35 130 8 70 21 126 33 148 11 21 20 52 19 70 -1 19 4 66 11 104 7 39 12
124 12 190 0 95 4 128 18 157 10 20 17 52 15 70 -1 18 1 39 5 48 5 8 16 42 25
75 28 102 41 130 67 142 14 7 39 30 57 52 l31 38 69 -5 c64 -4 114 8 109 26
-6 20 25 52 51 52 17 0 37 10 53 28 14 15 39 39 56 53 17 14 37 42 45 61 11
25 25 39 54 51 21 8 45 22 52 31 17 21 91 54 160 72 30 8 60 19 67 25 7 5 43
25 80 44 49 24 73 31 85 24 27 -14 157 31 194 67 10 10 46 20 98 26 48 5 98
18 122 31 43 23 108 37 194 42 41 2 58 -2 72 -16 10 -10 25 -16 34 -13 8 4 15
1 15 -5 0 -6 11 -11 24 -11 14 0 27 -4 30 -9 10 -16 154 -34 220 -27 74 7 96
1 96 -25 0 -17 3 -18 21 -8 15 8 33 8 63 1 64 -17 116 -22 116 -12 0 10 -25
18 -73 22 -15 2 -26 8 -25 13 7 26 224 -2 368 -47 100 -32 98 -30 78 -35 -9
-2 -26 1 -37 6 -22 12 -54 4 -48 -13 2 -6 30 -11 69 -12 49 -1 75 -7 101 -23
19 -11 50 -21 70 -21 19 0 48 -7 63 -15 16 -8 39 -15 51 -15 12 0 28 -6 35
-12 7 -7 24 -14 38 -15 136 -11 177 -17 178 -27 1 -6 5 -29 8 -51 6 -43 21
-55 88 -71 16 -4 50 -29 76 -55 25 -27 51 -49 56 -49 6 0 25 -18 43 -40 30
-37 32 -46 32 -112 0 -40 7 -94 16 -120 10 -31 12 -58 7 -75 -4 -16 -8 -32 -8
-36 -1 -4 -8 -12 -16 -17 -13 -8 -12 -10 3 -10 9 0 17 -7 17 -16 0 -8 -4 -13
-10 -9 -5 3 -25 -1 -44 -9 -19 -8 -36 -12 -39 -10 -2 3 -10 -2 -17 -11 -7 -8
-23 -15 -36 -15 -29 0 -29 -3 -6 -38 10 -15 23 -36 28 -47 6 -11 21 -21 33
-23 18 -3 22 -8 17 -25 -3 -11 -1 -26 3 -31 13 -16 17 -59 7 -75 -5 -8 -4 -16
3 -21 8 -5 0 -15 -26 -30 -21 -13 -42 -24 -48 -24 -11 -1 -26 -66 -15 -66 10
0 33 -58 34 -85 1 -11 8 -21 16 -21 8 -1 21 -2 29 -3 8 -1 11 -7 6 -18 -4 -10
-8 -27 -9 -38 -1 -11 -7 -19 -14 -17 -7 1 -12 -5 -12 -14 0 -8 4 -13 9 -9 5 3
17 -19 25 -48 9 -30 25 -65 36 -80 11 -14 17 -32 14 -41 -4 -10 -1 -16 8 -16
15 0 18 -33 5 -46 -4 -4 -7 -14 -7 -23 0 -15 -41 -41 -64 -41 -6 0 -22 -13
-36 -30 l-25 -29 -57 19 c-50 16 -62 17 -95 5 -21 -7 -68 -18 -106 -25 -58
-10 -70 -10 -91 3 -27 18 -173 21 -193 5 -7 -6 -13 -7 -13 -4 0 4 -9 2 -20 -4
-14 -7 -20 -7 -20 0 0 17 -17 12 -48 -15 -33 -27 -72 -33 -72 -11 0 8 5 16 11
18 6 2 9 13 7 23 -3 17 -6 16 -21 -10 l-16 -30 -1 28 c0 15 -4 27 -8 27 -16 0
-32 -25 -32 -50 0 -15 -7 -51 -16 -80 -11 -38 -13 -55 -5 -58 6 -2 11 -8 11
-13 0 -6 -4 -8 -9 -5 -5 3 -11 -3 -14 -14 -9 -34 -42 -24 -61 18 -9 20 -24 50
-33 67 -14 26 -17 27 -23 11 -3 -11 0 -43 8 -72 8 -29 11 -60 7 -71 -6 -15 -8
-15 -13 -3 -7 21 -24 30 -47 25 -11 -2 -41 -7 -68 -10 l-47 -6 7 -41 c3 -23
14 -49 25 -60 27 -27 22 -48 -23 -94 -33 -33 -42 -51 -44 -83 -2 -22 1 -43 6
-47 5 -3 7 -9 4 -14 -7 -11 12 -51 29 -62 8 -5 7 -8 -1 -8 -22 0 -15 -51 7
-57 22 -6 27 -23 8 -23 -8 0 -9 -3 -3 -8 6 -4 16 -14 22 -23 11 -13 9 -15 -16
-11 -22 3 -29 -1 -34 -17 -3 -14 0 -21 9 -21 18 0 17 -40 -2 -65 -10 -13 -17
-16 -22 -9 -4 6 -17 14 -29 18 -17 6 -23 3 -23 -9 0 -9 -7 -30 -17 -48 -26
-51 -19 -146 18 -242 19 -49 23 -80 24 -165 0 -80 4 -111 17 -130 9 -14 19
-53 22 -88 3 -34 8 -67 12 -73 3 -6 -1 -18 -10 -28 -15 -16 -15 -48 0 -73 8
-13 14 -59 18 -153 7 -134 42 -259 81 -287 19 -14 35 -8 35 12 0 13 -7 20 -20
20 -27 0 -25 13 5 27 22 10 28 8 51 -20 14 -17 30 -42 36 -56 7 -21 11 -23 18
-11 9 13 10 13 10 0 1 -35 16 -43 48 -26 24 12 33 13 39 3 12 -19 31 -97 21
-91 -4 3 -8 -1 -8 -8 -3 -151 -6 -167 -29 -187 -59 -51 -154 -45 -165 11 -2 7
-6 25 -10 39 -4 15 -3 44 3 65 7 26 7 40 1 42 -6 2 -8 7 -5 12 2 4 -4 15 -15
25 -19 17 -19 19 -4 37 10 11 12 18 6 18 -7 0 -12 7 -12 16 0 8 -4 12 -10 9
-5 -3 -10 -18 -10 -33 0 -29 -21 -57 -130 -173 -111 -119 -168 -145 -341 -154
-112 -5 -117 -5 -182 25 -59 27 -71 29 -114 20 -157 -31 -246 -107 -217 -185
11 -27 60 -45 127 -45 65 0 87 10 87 42 0 25 43 50 102 59 61 10 105 -4 212
-65 77 -43 78 -43 180 -44 81 -1 113 -6 151 -22 64 -28 207 -37 225 -15 7 8
19 15 26 15 8 0 14 4 14 9 0 5 47 11 104 13 94 3 105 5 130 28 79 74 82 170 9
331 -23 53 -43 102 -43 109 0 6 -9 24 -21 38 -66 87 -71 100 -68 196 5 198 -8
372 -30 400 -4 6 -9 18 -9 26 -1 27 -8 45 -26 72 -9 15 -19 42 -21 60 -1 19
-15 60 -30 91 -20 43 -27 76 -29 130 -2 39 -6 79 -10 87 -3 9 -5 25 -4 35 4
31 -13 149 -23 161 -5 7 -11 36 -13 65 -2 30 -6 61 -9 69 -15 42 -15 65 -1 81
8 9 15 36 16 59 0 46 33 120 73 168 15 18 25 37 23 44 -6 17 32 58 54 58 9 0
32 9 50 20 18 11 43 20 54 20 12 0 24 6 27 13 3 7 27 19 53 25 27 7 83 22 124
33 63 18 108 22 277 24 l201 3 21 -24 c17 -19 31 -24 69 -24 50 0 92 -21 92
-46 0 -9 10 -14 29 -14 38 0 50 -17 18 -25 -22 -6 -24 -11 -20 -47 5 -39 4
-41 -18 -34 -43 11 -392 28 -464 22 -167 -14 -310 -78 -427 -188 -34 -32 -65
-58 -70 -58 -10 0 -40 -71 -33 -78 10 -10 75 33 134 90 33 31 80 66 103 77 49
22 64 19 28 -6 -37 -26 -51 -43 -124 -147 -57 -83 -75 -121 -50 -112 8 3 20 6
25 6 5 0 9 6 9 13 0 8 16 22 35 33 19 10 35 24 35 32 0 7 10 16 23 21 12 5 37
27 55 50 35 43 118 106 125 94 2 -5 4 -29 5 -54 2 -63 14 -91 62 -143 52 -57
118 -81 191 -71 66 9 119 56 156 136 15 33 30 59 34 59 4 0 19 -24 35 -54 15
-30 41 -62 56 -71 15 -9 28 -22 28 -30 0 -26 -23 -65 -42 -70 -30 -10 -21 -41
17 -59 36 -18 48 -52 21 -62 -11 -4 -6 -13 16 -35 25 -23 38 -28 64 -25 19 3
36 0 39 -5 4 -5 14 -9 24 -9 10 0 24 -7 31 -15 16 -19 34 -20 27 -1 -9 22 31
31 52 12 10 -9 26 -16 36 -16 21 0 65 -44 65 -66 0 -7 -5 -14 -11 -14 -8 0 -7
-5 2 -16 7 -9 18 -25 24 -37 5 -11 25 -25 42 -31 40 -13 76 -73 61 -99 -10
-19 -2 -57 13 -57 5 0 9 -8 9 -17 0 -15 2 -16 10 -3 15 24 20 7 25 -74 3 -47
11 -86 21 -101 14 -21 14 -30 5 -54 -7 -15 -11 -39 -9 -52 1 -13 -4 -46 -13
-74 -9 -27 -22 -69 -29 -92 -7 -24 -21 -50 -32 -59 -10 -10 -18 -21 -18 -27 0
-5 -13 -24 -29 -42 -21 -24 -27 -40 -24 -59 3 -14 -2 -41 -11 -60 -9 -18 -23
-62 -32 -97 -8 -35 -23 -80 -32 -99 -9 -19 -19 -62 -23 -95 -5 -40 -13 -63
-26 -72 -14 -11 -15 -16 -5 -22 15 -9 1 -56 -19 -63 -7 -2 -13 -24 -14 -51 -2
-26 -11 -59 -21 -74 -10 -16 -17 -31 -16 -35 1 -4 -8 -13 -19 -19 -15 -8 -18
-13 -10 -19 8 -4 2 -11 -18 -20 -17 -7 -31 -19 -31 -26 0 -8 -13 -17 -30 -20
-16 -4 -46 -23 -65 -43 -30 -30 -42 -36 -73 -34 -20 1 -51 9 -67 17 -28 15
-31 15 -42 -1 -7 -9 -16 -14 -19 -10 -4 4 -20 -1 -35 -10 -20 -12 -29 -26 -29
-43 -1 -33 -22 -60 -48 -60 -31 0 -75 -19 -90 -38 -11 -14 -15 -15 -34 -3 -19
12 -23 11 -35 -5 -7 -10 -13 -30 -13 -46 0 -32 -7 -34 -38 -12 -20 14 -22 14
-22 0 0 -9 -9 -26 -20 -39 -17 -19 -29 -23 -63 -21 -101 8 -163 16 -182 24
-20 8 -106 25 -176 34 -20 2 -42 -1 -48 -7 -6 -6 -11 -7 -11 -2 0 6 -17 10
-37 11 -111 2 -123 4 -123 19 0 8 -7 15 -15 15 -8 0 -15 -4 -15 -9 0 -5 -22
-18 -48 -29 -27 -12 -54 -28 -61 -36 -13 -16 -57 -30 -84 -27 -35 5 -83 -18
-83 -39 0 -11 7 -20 16 -20 8 0 -7 -12 -33 -26 -45 -24 -54 -25 -135 -18 -48
5 -106 7 -129 6 -23 -1 -45 2 -48 8 -3 5 -14 10 -24 10 -10 0 -31 11 -47 25
-16 14 -35 23 -43 20 -8 -3 -11 0 -8 9 8 21 -21 28 -46 11 -12 -8 -29 -15 -39
-15 -10 0 -18 -3 -18 -7 0 -9 -60 -34 -125 -53 -22 -7 -47 -16 -55 -21 -57
-32 -131 -59 -220 -79 -30 -7 -71 -20 -90 -28 -19 -9 -40 -15 -46 -14 -15 3
-28 -15 -48 -70 -10 -27 -22 -48 -27 -48 -26 0 31 -38 66 -44 117 -20 123 -19
156 9 22 18 39 25 55 21 28 -7 103 22 85 34 -7 4 40 10 105 12 66 3 130 10
144 15 79 33 278 34 393 2 39 -10 223 4 256 21 31 16 97 29 170 34 60 4 84 1
125 -15 86 -34 121 -56 121 -76 0 -10 3 -23 7 -29 8 -12 -33 -73 -57 -87 -8
-4 -15 -15 -15 -24 0 -11 -6 -14 -22 -10 -11 3 -35 0 -52 -7 -33 -14 -106 -79
-106 -95 0 -16 -35 -30 -50 -21 -9 5 -20 5 -27 -2 -9 -7 -39 -9 -84 -5 -53 4
-89 1 -147 -14 -42 -11 -107 -22 -144 -24 -82 -6 -187 -40 -209 -68 -9 -11
-17 -40 -17 -63 -1 -49 -30 -104 -43 -82 -14 23 -18 3 -7 -40 6 -23 16 -43 22
-44 6 0 16 -2 21 -3 6 -2 18 -3 28 -4 9 0 31 -14 47 -30 22 -20 37 -27 52 -23
13 3 19 1 15 -5 -16 -26 82 -30 191 -7 152 32 344 16 390 -32 13 -13 28 -24
35 -25 15 0 130 -15 181 -23 57 -9 66 -18 92 -79 20 -47 23 -66 17 -117 -4
-43 -13 -70 -28 -89 -13 -14 -24 -35 -26 -46 -3 -11 -13 -21 -24 -24 -31 -5
-73 -39 -87 -69 -9 -19 -22 -28 -43 -30 -17 -2 -47 -17 -67 -33 -22 -17 -49
-29 -66 -29 -16 0 -35 -6 -41 -14 -6 -7 -30 -13 -52 -13 -23 0 -44 -5 -48 -10
-3 -5 -22 -15 -41 -22 -19 -7 -45 -18 -58 -24 -20 -9 -26 -7 -45 15 -19 23
-28 26 -72 23 -27 -2 -67 -7 -88 -10 -24 -5 -42 -3 -52 5 -8 6 -56 14 -107 17
-51 3 -99 9 -106 15 -6 6 -26 8 -43 4 -17 -3 -49 -3 -70 0 -35 6 -38 8 -22 20
17 13 17 13 0 14 -11 0 -21 -8 -24 -18 -4 -16 -14 -18 -61 -17 -31 1 -70 8
-87 15 -16 7 -36 12 -42 11 -8 -1 -13 9 -13 23 0 19 -10 29 -45 46 -25 12 -45
26 -45 31 0 5 -6 9 -14 9 -8 0 -17 12 -20 26 -5 19 -20 31 -56 46 -28 12 -50
27 -50 35 0 20 -43 113 -52 113 -4 0 -15 15 -24 33 -9 17 -26 41 -39 52 -12
11 -31 36 -41 55 -18 32 -107 126 -163 171 -13 10 -36 19 -50 19 -21 0 -31 8
-45 37 -17 36 -10 55 18 49 6 -2 8 -1 4 1 -5 3 -8 11 -8 19 0 8 -4 14 -10 14
-5 0 -10 -4 -10 -9 0 -16 -31 -41 -51 -41 -12 0 -19 7 -19 19 0 10 -9 29 -19
42 l-20 24 -16 -23 c-15 -21 -19 -22 -34 -9 -9 8 -35 17 -59 20 l-42 5 17 -29
c10 -16 21 -29 26 -29 5 0 4 -7 -3 -15 -9 -10 -9 -15 -1 -15 6 0 11 -8 11 -17
0 -10 6 -28 13 -39 6 -12 23 -41 36 -65 13 -24 26 -46 30 -49 3 -3 17 -27 29
-55 13 -27 30 -64 39 -81 8 -17 16 -42 18 -55 1 -13 6 -31 9 -40 4 -9 11 -47
16 -85 5 -38 14 -96 20 -129 6 -33 9 -70 7 -82 -3 -15 2 -23 14 -26 13 -4 18
-13 17 -31 -2 -24 -3 -25 -22 -8 -18 16 -19 16 -13 -1 4 -10 7 -25 7 -33 0 -8
9 -14 20 -14 13 0 20 -7 20 -20 0 -11 5 -20 11 -20 6 0 8 9 4 20 -5 16 -2 20
14 20 12 0 21 5 21 11 0 20 24 3 30 -22 4 -15 14 -25 28 -27 12 -2 22 -9 22
-16 0 -7 11 -23 25 -36 13 -12 22 -26 20 -30 -2 -4 13 -20 35 -36 22 -16 46
-45 54 -64 8 -19 32 -46 52 -60 45 -31 164 -149 164 -164 1 -14 48 -60 78 -75
15 -8 23 -20 22 -34 -4 -41 0 -47 28 -48 26 0 26 -1 5 -9 -13 -5 -23 -16 -23
-23 0 -24 -25 -39 -39 -24 -6 8 -8 17 -5 20 4 3 -17 17 -46 31 -29 14 -59 35
-67 46 -8 11 -18 20 -22 20 -5 0 -25 16 -45 35 -21 19 -45 35 -54 35 -21 0
-140 100 -141 118 -1 6 -5 12 -11 12 -5 0 -10 4 -10 9 0 5 -26 35 -58 68 -32
32 -65 74 -75 93 -9 19 -17 31 -17 25 -1 -16 -36 59 -51 109 -14 49 -29 61
-29 24 0 -79 56 -265 96 -319 13 -18 24 -39 24 -47 0 -23 42 -91 60 -97 9 -3
40 -30 69 -61 49 -52 132 -132 300 -286 40 -38 79 -68 86 -68 7 0 18 -7 25
-14 6 -8 33 -22 58 -30 35 -12 67 -36 122 -92 84 -85 154 -124 226 -124 32 0
44 -4 44 -15 0 -16 30 -35 57 -35 10 0 25 -5 33 -10 13 -9 13 -11 0 -20 -8 -6
-26 -7 -40 -4 -49 13 -69 12 -64 -1 9 -23 58 -36 153 -40 53 -3 120 -9 150
-15 29 -5 73 -10 97 -10 23 0 46 -4 49 -10 3 -5 21 -10 38 -10 18 0 41 -6 52
-14 11 -7 31 -17 44 -21 13 -4 53 -27 88 -51 73 -50 103 -60 131 -45 12 6 40
11 64 11 24 0 67 8 96 18 l52 19 -30 38 c-39 49 -38 73 5 146 19 32 30 59 26
59 -23 0 -41 -14 -41 -30 0 -22 -22 -39 -28 -22 -6 18 -22 4 -22 -19 0 -10 -4
-19 -8 -19 -5 0 -7 13 -4 30 2 16 8 30 12 30 4 0 10 7 13 14 10 25 -19 7 -31
-20 -7 -13 -17 -24 -24 -24 -7 0 -21 -13 -30 -30 -9 -16 -25 -29 -35 -29 -10
0 -34 -4 -54 -9 -43 -11 -80 10 -84 49 -1 13 -3 30 -4 37 0 6 -6 12 -12 12 -6
0 -9 -6 -6 -14 11 -29 -7 -25 -40 9 -23 24 -33 43 -33 65 0 30 0 30 27 16 18
-9 28 -22 28 -37 0 -16 5 -23 16 -21 9 1 21 -9 27 -23 14 -29 27 -32 41 -8 9
16 12 16 21 3 8 -13 10 -13 10 1 0 8 -15 21 -34 29 -24 9 -32 18 -28 28 4 11
1 14 -11 9 -14 -5 -16 -2 -11 18 5 20 3 24 -8 20 -8 -3 -21 2 -29 11 -12 15
-12 16 10 9 13 -4 42 -7 64 -7 30 1 40 -3 44 -18 4 -16 9 -17 31 -7 15 6 28
12 30 13 2 1 -1 12 -8 23 -9 17 -7 26 7 45 16 20 20 21 32 8 8 -8 10 -17 4
-21 -5 -3 -12 -14 -16 -23 -5 -15 -3 -16 19 -6 18 9 27 9 36 0 16 -16 28 -15
28 3 0 8 7 15 15 15 8 0 19 8 24 18 6 12 22 19 44 20 40 2 70 14 117 48 21 15
43 23 54 20 11 -3 26 0 33 6 10 8 13 6 13 -11 0 -11 5 -21 10 -21 6 0 10 -7
10 -16 0 -8 -5 -12 -10 -9 -6 3 -17 -1 -26 -9 -8 -9 -22 -16 -30 -16 -8 0 -14
-4 -14 -10 0 -5 -18 -10 -40 -10 -29 0 -40 -4 -40 -15 0 -10 8 -15 23 -14 12
1 32 1 44 1 20 -2 21 -5 12 -28 -5 -15 -7 -29 -5 -32 3 -2 -12 -18 -34 -33
-45 -33 -94 -104 -84 -121 4 -7 3 -8 -4 -4 -19 11 -14 -9 9 -38 11 -14 29 -26
39 -26 10 0 56 35 102 78 46 44 111 98 146 121 34 24 67 53 73 65 6 11 65 75
132 141 67 66 180 188 251 270 71 83 225 248 343 367 205 208 313 335 313 368
0 9 6 24 14 35 7 11 19 47 26 80 12 58 17 71 60 171 27 64 22 98 -28 174 -47
72 -72 120 -72 142 0 9 -4 20 -10 23 -14 9 -13 190 1 234 11 34 17 48 53 133
9 20 16 42 16 50 0 8 4 18 8 24 5 5 17 36 26 69 9 33 21 67 26 76 5 9 12 33
15 53 4 20 11 39 16 42 5 3 9 16 9 29 0 13 5 27 10 30 5 3 10 16 10 28 0 12 7
35 15 51 8 15 15 38 15 50 0 13 3 26 7 30 7 7 9 13 19 61 3 17 10 39 15 51 6
11 9 24 8 30 -3 12 12 66 21 79 5 6 11 27 15 48 4 20 11 40 16 43 5 3 9 16 9
30 0 24 22 105 40 149 5 11 16 43 25 70 35 102 73 153 157 207 27 17 48 35 48
40 0 4 5 8 10 8 6 0 22 8 36 17 25 16 25 17 8 30 -10 7 -28 13 -40 13 -12 0
-27 6 -33 14 -10 12 -5 21 23 48 28 26 36 42 40 80 2 26 14 59 25 75 11 15 22
42 25 58 19 122 25 129 96 105 30 -10 60 -26 67 -36 11 -16 13 -12 13 29 0 26
-4 47 -10 47 -18 0 -11 36 11 56 41 36 69 113 69 189 0 96 18 283 31 323 8 23
8 42 0 65 -8 21 -8 33 -1 35 19 7 10 80 -17 144 -15 35 -30 65 -34 68 -15 12
-50 107 -59 162 -10 63 -30 118 -42 118 -5 0 -8 6 -8 13 0 16 -81 57 -160 82
-35 10 -65 28 -82 48 -24 27 -28 40 -28 94 0 34 4 64 9 67 4 3 10 55 13 116 3
60 11 116 16 123 8 9 13 114 16 298 3 156 8 322 11 368 4 53 3 92 -4 105 -6
12 -12 82 -14 156 -2 74 -6 144 -9 155 -16 53 -26 109 -21 122 9 23 -14 88
-73 208 -30 61 -54 118 -54 127 0 9 -4 19 -9 22 -4 3 -11 35 -14 72 -4 36 -11
71 -15 78 -5 6 -13 34 -16 61 -9 63 -30 108 -61 133 -13 11 -22 22 -18 25 3 3
-27 71 -66 150 -39 78 -71 148 -71 154 0 6 -7 24 -15 39 -8 16 -15 39 -15 51
0 12 -4 25 -10 28 -5 3 -10 16 -10 29 0 34 -34 97 -74 135 -20 19 -36 38 -36
43 0 4 -12 24 -26 45 -30 45 -54 62 -54 38 0 -28 -15 -16 -33 28 -25 60 -43
78 -120 117 -38 19 -80 41 -93 48 -13 7 -58 43 -99 80 -141 126 -192 162 -230
162 -8 0 -23 4 -33 10 -9 5 -38 18 -63 29 -26 11 -71 42 -101 68 -54 49 -81
69 -108 79 -8 3 -24 9 -35 14 -11 4 -31 12 -45 17 -14 5 -69 8 -122 6 -59 -2
-99 0 -103 7 -3 5 -19 10 -35 10 -16 0 -31 4 -34 9 -3 4 -29 11 -57 15 -28 4
-58 11 -67 15 -10 5 -35 14 -57 21 -22 7 -53 18 -70 25 -16 7 -76 25 -132 39
-56 15 -118 33 -137 41 -37 16 -90 17 -249 5z m2935 -4665 c35 -47 51 -255 24
-318 -19 -45 -72 -99 -93 -95 -31 6 -28 46 6 77 34 32 34 19 10 208 -6 45 -8
100 -4 122 6 38 8 39 28 28 12 -7 25 -16 29 -22z"/>
<path d="M4620 13110 c-19 -11 -41 -20 -49 -20 -8 0 -23 -8 -34 -17 -19 -17
-20 -17 -14 0 10 27 -35 22 -61 -8 -24 -27 -21 -31 9 -15 16 9 19 7 19 -10 0
-17 -7 -20 -47 -21 -79 -3 -116 1 -148 16 -43 19 -132 38 -145 30 -15 -9 -12
-25 5 -25 47 0 -16 -83 -66 -86 -43 -3 -54 14 -27 43 l21 23 -21 0 c-12 0 -47
-22 -77 -50 -30 -27 -60 -50 -66 -50 -7 0 -9 -12 -5 -35 6 -29 3 -39 -13 -53
-12 -11 -22 -36 -26 -68 -6 -51 -6 -52 26 -63 31 -11 33 -9 77 39 25 28 67 62
93 77 27 14 49 30 49 35 0 11 -17 10 -25 -2 -8 -13 -45 -13 -45 0 0 27 55 60
145 85 33 10 71 24 83 32 32 20 41 8 14 -17 -23 -21 -30 -36 -12 -25 12 7 50
-3 50 -13 0 -4 -14 -15 -31 -25 -17 -9 -29 -23 -27 -29 7 -20 167 -25 312 -10
48 5 163 9 255 8 132 -1 172 -5 196 -18 21 -11 58 -16 125 -17 52 -1 98 -5
103 -10 6 -6 20 -6 34 0 21 8 30 5 51 -16 26 -27 38 -24 44 9 2 15 -5 22 -32
30 -38 11 -52 24 -45 43 2 7 0 15 -5 18 -13 8 -13 65 0 65 6 0 10 -6 10 -14 0
-16 27 -29 41 -20 16 10 10 22 -35 68 -45 47 -61 55 -68 34 -6 -17 -66 22 -82
53 -12 26 -85 47 -141 41 -42 -4 -91 -4 -245 3 -123 5 -138 3 -170 -15z"/>
<path d="M4640 12650 c-14 -5 -55 -13 -92 -18 -136 -20 -299 -126 -365 -239
-27 -47 -38 -89 -24 -98 16 -9 80 54 106 104 37 72 109 136 187 165 75 28 102
20 35 -10 -62 -28 -175 -147 -235 -249 -56 -95 -62 -111 -34 -100 9 4 33 12
52 17 67 19 89 36 92 70 2 25 7 32 20 30 11 -2 24 10 37 35 20 38 51 73 106
118 36 30 45 31 46 8 2 -98 32 -167 93 -221 87 -76 238 -45 300 60 13 24 27
55 30 71 3 15 8 38 11 52 4 17 12 25 26 25 24 0 89 -60 89 -82 0 -10 15 -14
55 -15 52 -1 55 0 55 23 0 15 6 24 15 24 8 0 15 -4 15 -9 0 -8 60 -41 74 -41
10 0 7 27 -6 55 -17 38 -162 147 -233 175 -33 14 -70 31 -82 38 -26 16 -333
26 -373 12z"/>
<path d="M3326 12084 c-3 -9 -6 -28 -6 -44 0 -31 -37 -159 -52 -177 -25 -30
-44 -220 -28 -283 6 -25 13 -54 15 -65 3 -11 11 -40 19 -65 l14 -45 5 35 c3
19 9 105 12 190 4 85 8 178 9 205 2 33 11 64 27 90 14 22 28 48 32 58 3 9 13
17 21 17 19 0 12 23 -22 68 -27 36 -37 39 -46 16z"/>
<path d="M8321 8448 c10 -38 11 -171 0 -208 -5 -15 -7 14 -7 70 1 52 -3 101
-8 109 -9 15 -13 4 -76 -224 -11 -38 -22 -79 -25 -90 -3 -11 1 -29 9 -40 l15
-20 1 20 c0 11 9 31 20 45 11 14 20 29 20 33 0 5 7 16 17 25 15 16 16 13 10
-38 -4 -30 -10 -66 -14 -79 -4 -17 -3 -22 5 -17 9 5 12 -11 12 -56 0 -65 -13
-127 -29 -137 -10 -7 -22 -87 -21 -146 0 -22 -9 -76 -21 -120 -11 -44 -23
-107 -25 -140 -1 -33 -10 -82 -18 -110 -9 -27 -16 -64 -16 -81 0 -17 -7 -51
-15 -74 -8 -23 -15 -52 -15 -64 0 -12 -14 -50 -31 -85 -22 -46 -34 -60 -42
-52 -8 8 -5 18 10 39 13 18 23 52 28 97 4 39 11 78 16 87 12 22 18 168 7 168
-4 0 -8 15 -8 33 -1 27 -2 29 -11 14 -6 -9 -9 -25 -7 -35 1 -9 -2 -30 -9 -47
-6 -16 -23 -67 -37 -113 -15 -46 -54 -135 -86 -197 -32 -63 -64 -132 -70 -152
-7 -21 -16 -42 -21 -47 -5 -6 -9 -20 -9 -32 0 -12 -9 -50 -21 -85 -18 -59 -36
-160 -58 -346 -5 -40 -13 -78 -17 -84 -13 -21 -22 -89 -13 -95 17 -10 9 -70
-20 -154 -15 -47 -29 -96 -29 -109 -1 -13 -8 -31 -16 -40 -20 -22 -20 -46 0
-118 25 -89 35 -202 21 -232 -10 -21 -14 -139 -8 -230 2 -29 31 12 31 44 0 19
8 53 19 77 24 56 55 205 87 416 4 28 10 40 16 34 13 -13 13 -124 0 -217 -6
-44 -16 -134 -21 -200 -6 -66 -14 -134 -19 -151 -14 -47 -59 -112 -82 -119
-19 -6 -26 -25 -14 -38 4 -3 23 0 42 9 20 8 39 11 43 7 9 -9 -6 -253 -22 -373
-6 -41 -14 -147 -19 -235 -5 -88 -14 -183 -21 -211 -6 -29 -9 -67 -6 -85 2
-19 1 -77 -4 -129 -12 -122 -36 -344 -49 -440 -5 -41 -14 -149 -20 -240 -7
-91 -18 -194 -25 -230 -8 -36 -21 -157 -30 -270 -27 -355 -37 -444 -52 -468
-8 -13 -12 -30 -9 -38 9 -24 -26 -487 -53 -689 -6 -44 -20 -204 -31 -355 -12
-151 -27 -338 -35 -415 -13 -127 -32 -397 -38 -535 l-2 -55 2461 -3 2461 -2
34 23 c19 12 42 38 51 57 17 33 18 210 18 3277 0 1783 -3 3248 -6 3257 -3 9
-14 16 -23 16 -16 0 -135 33 -171 48 -8 3 -40 11 -70 18 -30 7 -73 18 -95 24
-22 6 -65 17 -95 24 -30 7 -62 15 -70 18 -8 4 -41 9 -72 12 -32 3 -82 17 -110
30 -84 39 -120 52 -173 66 -27 7 -55 17 -61 22 -6 4 -32 11 -58 14 -26 4 -49
11 -52 15 -3 5 -16 9 -29 9 -22 0 -68 14 -130 40 -11 5 -54 18 -95 30 -71 20
-105 32 -141 50 -9 5 -41 11 -73 15 -31 4 -59 11 -62 16 -3 5 -14 9 -26 9 -11
0 -34 6 -51 14 -72 30 -88 35 -137 42 -28 4 -53 11 -56 15 -3 5 -18 9 -33 9
-15 0 -36 7 -47 15 -10 8 -31 15 -46 15 -15 0 -29 4 -32 9 -3 4 -29 11 -58 15
-28 4 -77 19 -107 33 -103 47 -119 53 -130 53 -6 0 -19 4 -29 9 -9 5 -37 17
-62 26 -25 10 -54 21 -65 25 -11 5 -38 12 -60 15 -22 4 -44 10 -50 14 -22 18
-84 35 -150 42 -119 13 -209 28 -230 38 -11 5 -54 12 -97 14 -42 3 -85 10 -96
16 -12 6 -47 11 -79 11 -33 0 -64 5 -70 11 -6 6 -54 13 -107 16 -53 3 -99 10
-102 14 -3 5 -25 9 -49 9 -24 0 -46 4 -49 9 -3 4 -29 11 -57 15 -29 4 -70 16
-93 28 -44 21 -171 140 -187 173 -14 28 -31 56 -56 91 -12 17 -25 42 -28 57
-4 15 -11 27 -16 27 -5 0 -9 10 -9 23 0 13 -9 32 -19 44 -11 11 -19 28 -18 38
1 10 -3 20 -10 22 -9 3 -10 -4 -2 -29z"/>
<path d="M4365 7663 c-11 -3 -29 -12 -40 -19 -11 -8 -29 -14 -42 -14 -12 0
-24 -4 -27 -9 -3 -5 -45 -12 -93 -16 -83 -6 -145 -20 -168 -37 -6 -4 -31 -10
-55 -14 -25 -4 -49 -10 -55 -14 -5 -5 -96 -10 -202 -11 -136 -3 -196 -8 -205
-17 -6 -6 -24 -12 -39 -12 -15 0 -30 -4 -33 -9 -3 -4 -29 -11 -57 -15 -28 -4
-58 -11 -67 -17 -27 -15 -133 -50 -189 -62 -29 -5 -53 -14 -53 -18 0 -5 -17
-11 -37 -14 -21 -4 -54 -15 -73 -25 -19 -10 -55 -21 -80 -25 -25 -4 -49 -11
-55 -15 -5 -4 -23 -10 -40 -14 -28 -6 -82 -29 -148 -62 -16 -8 -33 -14 -39
-14 -5 0 -26 -7 -46 -16 -60 -26 -72 -30 -182 -65 -58 -18 -109 -36 -115 -40
-5 -4 -26 -10 -45 -13 -19 -4 -44 -11 -55 -15 -41 -17 -91 -30 -135 -37 -25
-4 -49 -10 -55 -14 -5 -4 -32 -11 -59 -15 -47 -6 -76 -16 -161 -55 -22 -10
-51 -21 -65 -25 -14 -3 -34 -10 -45 -15 -64 -29 -101 -40 -131 -40 -18 0 -35
-4 -38 -9 -3 -4 -34 -11 -68 -14 -35 -4 -76 -11 -93 -16 -27 -9 -88 -22 -183
-38 -18 -3 -35 -9 -38 -14 -3 -5 -16 -9 -29 -9 -13 0 -47 -12 -77 -27 -43 -23
-69 -28 -143 -31 -49 -2 -94 -7 -100 -12 -5 -4 -31 -11 -57 -14 -26 -4 -50
-11 -53 -17 -4 -5 -14 -9 -23 -9 -9 0 -53 -18 -98 -40 -71 -36 -83 -45 -88
-72 -3 -17 -6 -1383 -6 -3037 0 -2842 1 -3008 18 -3040 9 -19 30 -44 45 -55
l28 -21 2012 -3 c1107 -2 2048 0 2092 3 l80 6 -2 87 c-2 48 3 151 9 230 9 115
9 147 -2 167 -7 14 -10 38 -7 59 3 19 0 49 -6 65 -8 22 -8 42 -1 70 8 29 8 43
0 51 -12 12 -17 106 -16 360 0 102 1 190 1 195 0 12 -9 152 -17 255 -3 41 -7
161 -9 265 -2 105 -6 235 -9 290 -3 55 -1 143 5 195 12 114 12 113 -1 315 -9
137 -19 523 -23 830 0 50 4 270 9 490 9 431 10 505 3 719 l-4 140 -32 8 c-18
5 -37 17 -43 27 -5 11 -10 82 -11 158 0 76 -1 152 -1 168 0 31 3 112 17 450 6
133 4 206 -4 243 -12 57 -35 276 -46 432 -3 52 -12 138 -20 190 -27 192 -36
320 -38 564 -1 157 -6 250 -12 251 -5 2 -19 0 -30 -2z"/>
<path d="M5494 6905 c-10 -8 -26 -15 -35 -15 -9 0 -22 -7 -29 -15 -7 -8 -31
-20 -54 -27 -22 -6 -47 -16 -55 -22 -18 -14 -50 -32 -86 -49 -17 -8 -51 -37
-76 -64 -24 -28 -55 -53 -67 -57 -13 -4 -34 -25 -49 -47 -14 -21 -29 -39 -34
-39 -4 0 -11 -9 -14 -20 -3 -11 -13 -20 -21 -20 -9 0 -29 -30 -48 -72 -19 -40
-43 -79 -55 -86 -12 -7 -21 -19 -21 -28 0 -8 -7 -29 -17 -47 -23 -45 -54 -162
-59 -227 -2 -30 -9 -69 -14 -86 -6 -17 -15 -59 -20 -95 -21 -146 -31 -194 -55
-266 -14 -42 -28 -93 -31 -112 -3 -20 -15 -81 -25 -136 -16 -83 -18 -112 -9
-170 5 -38 11 -83 13 -100 2 -24 7 -30 26 -30 32 0 38 25 40 143 0 52 7 108
16 134 8 23 15 55 15 69 0 15 6 42 14 60 7 19 16 60 19 92 3 32 11 64 17 72 9
11 8 18 -5 31 -10 10 -15 29 -13 48 2 26 7 31 28 31 21 0 25 -5 26 -33 1 -18
3 -35 6 -38 6 -6 38 87 38 110 0 9 9 33 20 53 11 21 20 45 20 54 0 9 7 22 15
29 8 7 15 20 15 29 0 9 8 25 16 36 15 20 15 20 30 1 8 -11 14 -30 14 -42 0
-28 10 -54 20 -54 4 0 10 23 13 52 4 30 14 60 26 72 11 12 27 35 35 51 l16 30
0 -27 c0 -15 5 -30 10 -33 6 -4 10 6 10 24 0 34 28 111 40 111 5 0 18 -12 30
-27 49 -64 109 -151 131 -190 13 -22 48 -76 77 -119 28 -42 52 -83 52 -91 0
-7 11 -23 25 -35 26 -22 115 -194 115 -221 0 -9 5 -19 10 -22 16 -10 59 -100
81 -168 10 -33 19 -88 19 -122 0 -48 5 -68 21 -89 21 -27 21 -28 4 -89 -9 -34
-24 -74 -31 -90 -8 -15 -19 -46 -23 -70 -14 -68 -80 -314 -93 -344 -6 -16 -19
-62 -29 -103 -37 -156 -51 -206 -63 -225 -7 -11 -20 -54 -29 -95 -25 -117 -95
-487 -107 -570 -6 -41 -16 -83 -21 -92 -5 -10 -14 -64 -19 -120 -16 -152 -39
-353 -50 -438 -16 -120 -31 -254 -45 -415 -13 -141 -43 -431 -65 -610 -5 -44
-16 -152 -25 -240 -18 -180 -49 -361 -71 -419 -8 -21 -19 -68 -24 -105 -5 -36
-18 -109 -29 -161 -11 -52 -38 -182 -60 -289 -23 -107 -43 -202 -46 -212 -4
-11 0 -19 12 -22 29 -7 1978 -9 2016 -2 30 6 36 12 40 38 3 18 -1 49 -8 70
-11 31 -11 43 1 65 7 15 13 56 13 92 1 36 1 83 1 106 0 22 -6 65 -13 95 -11
43 -14 181 -15 679 -1 344 -3 684 -6 755 -3 72 -8 209 -11 305 -3 96 -8 231
-10 300 -3 69 -8 242 -10 385 -3 143 -12 312 -20 375 -8 63 -21 199 -29 302
-13 163 -19 195 -42 245 -14 32 -29 78 -34 103 -4 25 -12 65 -18 90 -23 95
-42 189 -42 208 0 11 -7 25 -14 32 -28 22 -38 116 -33 284 3 89 10 175 16 191
9 24 10 7 8 -77 -3 -77 0 -108 8 -112 17 -6 32 30 40 100 7 56 37 124 55 124
9 0 15 24 25 104 5 33 14 56 31 71 13 12 24 33 24 46 0 45 52 129 105 169 73
56 87 72 125 141 19 34 47 75 63 90 15 15 27 36 27 46 0 27 75 179 92 185 8 3
20 24 26 47 15 47 57 101 80 102 10 0 27 13 40 29 22 28 22 30 6 62 -9 18 -34
56 -54 83 -20 28 -40 59 -44 71 -3 11 -29 44 -56 73 -28 29 -50 57 -50 61 0 4
-24 24 -53 44 -29 20 -58 45 -65 56 -7 11 -19 20 -27 20 -8 0 -22 11 -31 25
-9 15 -33 29 -57 36 -41 11 -82 35 -130 79 -23 20 -31 22 -45 12 -9 -7 -33
-20 -52 -29 -19 -10 -42 -23 -50 -29 -17 -14 -143 -49 -210 -58 -25 -3 -74
-11 -110 -16 -245 -39 -341 -53 -380 -54 -49 -2 -120 -23 -120 -36 0 -14 31
-20 72 -13 33 5 44 2 54 -12 12 -16 19 -17 70 -6 76 15 117 14 112 -1 -8 -24
-135 -37 -235 -25 -84 10 -94 9 -112 -7 -13 -12 -45 -20 -93 -25 -123 -12
-139 -9 -203 34 -67 46 -81 73 -63 121 15 41 35 43 105 13 90 -40 238 -58 238
-29 0 10 -16 17 -50 22 -165 25 -309 72 -322 104 -4 10 6 26 26 45 30 27 32
33 26 72 -9 53 -16 61 -41 42z"/>
</g>
</svg>
